<svg width="104" height="137" viewBox="0 0 104 137" fill="none" xmlns="http://www.w3.org/2000/svg">
<path d="M55.4093 16.7125C64.0693 13.5225 74.5393 14.8225 81.7693 20.6825C92.9793 29.7525 92.9993 44.9725 85.7293 56.5125C84.3093 58.7625 82.5493 60.9624 80.5093 63.1024L80.3793 63.0825C76.2593 62.6025 69.3293 65.5525 65.4393 67.0525C62.4993 68.1825 59.2893 69.4924 56.2193 70.1824C55.8393 70.2624 55.4593 70.3224 55.0693 70.3524C56.2693 69.7424 57.4593 69.1024 58.6393 68.4324C66.8793 63.7524 73.0893 57.7925 76.9393 51.6825C87.4293 35.0425 71.8593 17.0225 47.7093 33.3125C45.3893 19.1225 38.5693 14.7225 31.6193 14.7925C9.40927 15.0225 10.3093 53.7725 22.4593 68.3325C4.89926 57.4525 -3.17073 19.1625 17.0593 4.56245C21.8693 1.10245 27.8093 -0.667548 34.4493 0.232452C43.6793 1.48245 51.7893 8.20245 55.3993 16.7025L55.4093 16.7125Z" fill="#F6207F"/>
<path fill-rule="evenodd" clip-rule="evenodd" d="M3.03 103.612C3.59 77.9525 19.51 70.0025 40.98 71.6425C47.39 72.1225 52.38 74.2125 56.9 73.1825C64.02 71.5725 75.23 65.5825 80.02 66.1325C86.92 66.9325 82.6 71.2525 82.6 71.2525C82.6 71.2525 70.02 79.6025 68.47 80.3425C66.93 81.0825 60.59 83.0525 59.04 82.8225C60.41 83.5125 64.94 82.6625 69.24 81.2725C70.53 80.8525 71.81 79.7925 73.24 78.8725C79.4 74.8525 83.9 73.1325 85.48 70.3325C87.07 67.5325 84.14 66.1125 84.14 66.1125C84.14 66.1125 88.32 61.9825 92.13 52.5825C94.53 46.6625 99.41 45.8925 100.73 47.6725C101.32 48.4725 99.15 52.7325 98.54 54.2725C95.85 60.9725 92.52 72.5525 88.83 76.2925C84.14 81.0425 73.66 92.6925 63.83 95.4025C36.57 102.942 26.25 84.8925 3 103.602L3.03 103.612Z" fill="#336699"/>
<path d="M2.69238 123.023H3.11621L4.95508 127.405L6.79736 123.023H7.21777L5.11572 128H4.79443L2.69238 123.023ZM2.5625 123.023H2.93506L2.97949 125.826V128H2.5625V123.023ZM6.98193 123.023H7.35449V128H6.93408V125.826L6.98193 123.023ZM12.2935 125.245V125.778C12.2935 126.127 12.2479 126.443 12.1567 126.725C12.0679 127.005 11.938 127.246 11.7671 127.446C11.5985 127.647 11.3957 127.801 11.1587 127.908C10.9217 128.015 10.6551 128.068 10.3589 128.068C10.0695 128.068 9.80518 128.015 9.56592 127.908C9.32894 127.801 9.125 127.647 8.9541 127.446C8.7832 127.246 8.65104 127.005 8.55762 126.725C8.46419 126.443 8.41748 126.127 8.41748 125.778V125.245C8.41748 124.896 8.46305 124.582 8.5542 124.302C8.64762 124.019 8.77979 123.778 8.95068 123.577C9.12158 123.377 9.32552 123.223 9.5625 123.116C9.79948 123.009 10.0627 122.955 10.3521 122.955C10.6483 122.955 10.9149 123.009 11.1519 123.116C11.3888 123.223 11.5928 123.377 11.7637 123.577C11.9346 123.778 12.0656 124.019 12.1567 124.302C12.2479 124.582 12.2935 124.896 12.2935 125.245ZM11.8765 125.778V125.238C11.8765 124.944 11.8423 124.68 11.7739 124.445C11.7078 124.211 11.6087 124.01 11.4766 123.844C11.3467 123.677 11.1872 123.55 10.998 123.461C10.8089 123.372 10.5936 123.328 10.3521 123.328C10.1174 123.328 9.90658 123.372 9.71973 123.461C9.53288 123.55 9.37337 123.677 9.24121 123.844C9.11133 124.01 9.01107 124.211 8.94043 124.445C8.87207 124.68 8.83789 124.944 8.83789 125.238V125.778C8.83789 126.075 8.87207 126.341 8.94043 126.578C9.01107 126.813 9.11247 127.014 9.24463 127.183C9.37679 127.349 9.5363 127.477 9.72314 127.566C9.91227 127.655 10.1242 127.699 10.3589 127.699C10.6027 127.699 10.818 127.655 11.0049 127.566C11.1917 127.477 11.3501 127.349 11.48 127.183C11.6099 127.014 11.7078 126.813 11.7739 126.578C11.8423 126.341 11.8765 126.075 11.8765 125.778ZM15.0688 125.607H13.6675L13.6606 125.252H14.8672C15.1133 125.252 15.3229 125.217 15.4961 125.146C15.6693 125.075 15.8003 124.971 15.8892 124.832C15.9803 124.69 16.0259 124.517 16.0259 124.312C16.0259 124.102 15.9814 123.929 15.8926 123.792C15.8037 123.653 15.6704 123.551 15.4927 123.485C15.3149 123.419 15.0916 123.386 14.8228 123.386H13.7769V128H13.3564V123.023H14.8228C15.0757 123.023 15.3024 123.049 15.5029 123.099C15.7035 123.149 15.8743 123.227 16.0156 123.334C16.1569 123.442 16.264 123.577 16.3369 123.741C16.4121 123.903 16.4497 124.097 16.4497 124.322C16.4497 124.527 16.4041 124.713 16.313 124.879C16.2218 125.043 16.0931 125.178 15.9268 125.283C15.7627 125.385 15.5656 125.449 15.3354 125.474L15.0688 125.607ZM15.0381 128H13.5342L13.7495 127.641H15.0381C15.2842 127.641 15.4938 127.6 15.667 127.518C15.8424 127.434 15.9769 127.314 16.0703 127.159C16.1637 127.004 16.2104 126.82 16.2104 126.605C16.2104 126.416 16.1694 126.247 16.0874 126.096C16.0054 125.946 15.88 125.827 15.7114 125.741C15.5428 125.652 15.3286 125.607 15.0688 125.607H14.1973L14.2041 125.252H15.438L15.5132 125.378C15.7365 125.401 15.9313 125.471 16.0977 125.587C16.2663 125.701 16.3962 125.846 16.4873 126.021C16.5807 126.196 16.6274 126.389 16.6274 126.599C16.6274 126.899 16.5602 127.155 16.4258 127.364C16.2936 127.572 16.1079 127.73 15.8687 127.839C15.6317 127.946 15.3548 128 15.0381 128ZM18.1621 123.023V128H17.7417V123.023H18.1621ZM22.3936 127.641V128H19.813V127.641H22.3936ZM19.936 123.023V128H19.5156V123.023H19.936ZM26.3003 127.641V128H23.501V127.641H26.3003ZM23.6274 123.023V128H23.207V123.023H23.6274ZM25.9517 125.255V125.614H23.501V125.255H25.9517ZM26.2832 123.023V123.386H23.501V123.023H26.2832ZM30.5933 125.973H29.1748V125.614H30.5933C30.8895 125.614 31.1299 125.566 31.3145 125.471C31.5013 125.373 31.6369 125.241 31.7212 125.074C31.8078 124.908 31.8511 124.721 31.8511 124.514C31.8511 124.311 31.8078 124.124 31.7212 123.953C31.6369 123.782 31.5013 123.646 31.3145 123.543C31.1299 123.438 30.8895 123.386 30.5933 123.386H29.3218V128H28.9014V123.023H30.5933C30.9578 123.023 31.2643 123.086 31.5127 123.211C31.7633 123.337 31.9525 123.511 32.0801 123.734C32.2077 123.958 32.2715 124.215 32.2715 124.507C32.2715 124.812 32.2077 125.075 32.0801 125.296C31.9525 125.515 31.7645 125.683 31.5161 125.799C31.2677 125.915 30.9601 125.973 30.5933 125.973ZM36.561 125.255V125.614H33.5361V125.255H36.561ZM33.6353 123.023V128H33.2148V123.023H33.6353ZM36.8994 123.023V128H36.479V123.023H36.8994ZM41.0488 127.641V128H38.4683V127.641H41.0488ZM38.5913 123.023V128H38.1709V123.023H38.5913ZM44.9556 127.641V128H42.1562V127.641H44.9556ZM42.2827 123.023V128H41.8623V123.023H42.2827ZM44.6069 125.255V125.614H42.1562V125.255H44.6069ZM44.9385 123.023V123.386H42.1562V123.023H44.9385ZM47.5601 125.607H46.1587L46.1519 125.252H47.3584C47.6045 125.252 47.8141 125.217 47.9873 125.146C48.1605 125.075 48.2915 124.971 48.3804 124.832C48.4715 124.69 48.5171 124.517 48.5171 124.312C48.5171 124.102 48.4727 123.929 48.3838 123.792C48.2949 123.653 48.1616 123.551 47.9839 123.485C47.8062 123.419 47.5828 123.386 47.314 123.386H46.2681V128H45.8477V123.023H47.314C47.5669 123.023 47.7936 123.049 47.9941 123.099C48.1947 123.149 48.3656 123.227 48.5068 123.334C48.6481 123.442 48.7552 123.577 48.8281 123.741C48.9033 123.903 48.9409 124.097 48.9409 124.322C48.9409 124.527 48.8953 124.713 48.8042 124.879C48.7131 125.043 48.5843 125.178 48.418 125.283C48.2539 125.385 48.0568 125.449 47.8267 125.474L47.5601 125.607ZM47.5293 128H46.0254L46.2407 127.641H47.5293C47.7754 127.641 47.985 127.6 48.1582 127.518C48.3337 127.434 48.4681 127.314 48.5615 127.159C48.6549 127.004 48.7017 126.82 48.7017 126.605C48.7017 126.416 48.6606 126.247 48.5786 126.096C48.4966 125.946 48.3713 125.827 48.2026 125.741C48.034 125.652 47.8198 125.607 47.5601 125.607H46.6885L46.6953 125.252H47.9292L48.0044 125.378C48.2277 125.401 48.4225 125.471 48.5889 125.587C48.7575 125.701 48.8874 125.846 48.9785 126.021C49.0719 126.196 49.1187 126.389 49.1187 126.599C49.1187 126.899 49.0514 127.155 48.917 127.364C48.7848 127.572 48.5991 127.73 48.3599 127.839C48.1229 127.946 47.846 128 47.5293 128ZM53.8149 125.245V125.778C53.8149 126.127 53.7694 126.443 53.6782 126.725C53.5894 127.005 53.4595 127.246 53.2886 127.446C53.12 127.647 52.9172 127.801 52.6802 127.908C52.4432 128.015 52.1766 128.068 51.8804 128.068C51.591 128.068 51.3267 128.015 51.0874 127.908C50.8504 127.801 50.6465 127.647 50.4756 127.446C50.3047 127.246 50.1725 127.005 50.0791 126.725C49.9857 126.443 49.939 126.127 49.939 125.778V125.245C49.939 124.896 49.9845 124.582 50.0757 124.302C50.1691 124.019 50.3013 123.778 50.4722 123.577C50.6431 123.377 50.847 123.223 51.084 123.116C51.321 123.009 51.5841 122.955 51.8735 122.955C52.1698 122.955 52.4364 123.009 52.6733 123.116C52.9103 123.223 53.1143 123.377 53.2852 123.577C53.4561 123.778 53.5871 124.019 53.6782 124.302C53.7694 124.582 53.8149 124.896 53.8149 125.245ZM53.3979 125.778V125.238C53.3979 124.944 53.3638 124.68 53.2954 124.445C53.2293 124.211 53.1302 124.01 52.998 123.844C52.8682 123.677 52.7087 123.55 52.5195 123.461C52.3304 123.372 52.1151 123.328 51.8735 123.328C51.6388 123.328 51.4281 123.372 51.2412 123.461C51.0544 123.55 50.8949 123.677 50.7627 123.844C50.6328 124.01 50.5326 124.211 50.4619 124.445C50.3936 124.68 50.3594 124.944 50.3594 125.238V125.778C50.3594 126.075 50.3936 126.341 50.4619 126.578C50.5326 126.813 50.634 127.014 50.7661 127.183C50.8983 127.349 51.0578 127.477 51.2446 127.566C51.4338 127.655 51.6457 127.699 51.8804 127.699C52.1242 127.699 52.3395 127.655 52.5264 127.566C52.7132 127.477 52.8716 127.349 53.0015 127.183C53.1313 127.014 53.2293 126.813 53.2954 126.578C53.3638 126.341 53.3979 126.075 53.3979 125.778ZM56.4502 123.023V128H56.0332V123.023H56.4502ZM58.1558 123.023V123.386H54.3311V123.023H58.1558ZM62.5444 125.245V125.778C62.5444 126.127 62.4989 126.443 62.4077 126.725C62.3188 127.005 62.189 127.246 62.0181 127.446C61.8494 127.647 61.6466 127.801 61.4097 127.908C61.1727 128.015 60.9061 128.068 60.6099 128.068C60.3205 128.068 60.0562 128.015 59.8169 127.908C59.5799 127.801 59.376 127.647 59.2051 127.446C59.0342 127.246 58.902 127.005 58.8086 126.725C58.7152 126.443 58.6685 126.127 58.6685 125.778V125.245C58.6685 124.896 58.714 124.582 58.8052 124.302C58.8986 124.019 59.0308 123.778 59.2017 123.577C59.3726 123.377 59.5765 123.223 59.8135 123.116C60.0505 123.009 60.3136 122.955 60.603 122.955C60.8993 122.955 61.1659 123.009 61.4028 123.116C61.6398 123.223 61.8438 123.377 62.0146 123.577C62.1855 123.778 62.3166 124.019 62.4077 124.302C62.4989 124.582 62.5444 124.896 62.5444 125.245ZM62.1274 125.778V125.238C62.1274 124.944 62.0933 124.68 62.0249 124.445C61.9588 124.211 61.8597 124.01 61.7275 123.844C61.5977 123.677 61.4382 123.55 61.249 123.461C61.0599 123.372 60.8446 123.328 60.603 123.328C60.3683 123.328 60.1576 123.372 59.9707 123.461C59.7839 123.55 59.6243 123.677 59.4922 123.844C59.3623 124.01 59.262 124.211 59.1914 124.445C59.123 124.68 59.0889 124.944 59.0889 125.238V125.778C59.0889 126.075 59.123 126.341 59.1914 126.578C59.262 126.813 59.3634 127.014 59.4956 127.183C59.6278 127.349 59.7873 127.477 59.9741 127.566C60.1632 127.655 60.3752 127.699 60.6099 127.699C60.8537 127.699 61.069 127.655 61.2559 127.566C61.4427 127.477 61.6011 127.349 61.731 127.183C61.8608 127.014 61.9588 126.813 62.0249 126.578C62.0933 126.341 62.1274 126.075 62.1274 125.778ZM63.7373 123.023H64.1611L66 127.405L67.8423 123.023H68.2627L66.1606 128H65.8394L63.7373 123.023ZM63.6074 123.023H63.98L64.0244 125.826V128H63.6074V123.023ZM68.0269 123.023H68.3994V128H67.979V125.826L68.0269 123.023ZM69.5171 123.023L71.0244 125.734L72.5454 123.023H73.0308L71.2363 126.124V128H70.8159V126.124L69.0181 123.023H69.5171ZM78.2842 126.776C78.2842 126.64 78.2614 126.518 78.2158 126.411C78.1702 126.304 78.0951 126.208 77.9902 126.124C77.8877 126.037 77.7487 125.957 77.5732 125.884C77.4001 125.809 77.1836 125.735 76.9238 125.662C76.6755 125.591 76.451 125.514 76.2505 125.43C76.05 125.345 75.8779 125.249 75.7344 125.139C75.5931 125.03 75.4849 124.902 75.4097 124.756C75.3345 124.608 75.2969 124.436 75.2969 124.24C75.2969 124.049 75.3379 123.875 75.4199 123.717C75.502 123.56 75.617 123.424 75.7651 123.311C75.9155 123.197 76.0921 123.109 76.2949 123.047C76.5 122.986 76.7244 122.955 76.9683 122.955C77.3169 122.955 77.6177 123.021 77.8706 123.153C78.1258 123.285 78.3229 123.464 78.4619 123.69C78.6032 123.913 78.6738 124.164 78.6738 124.442H78.2534C78.2534 124.225 78.2021 124.033 78.0996 123.864C77.9993 123.693 77.8535 123.56 77.6621 123.464C77.473 123.366 77.2417 123.317 76.9683 123.317C76.6948 123.317 76.4647 123.36 76.2778 123.444C76.0933 123.526 75.9531 123.636 75.8574 123.775C75.764 123.912 75.7173 124.065 75.7173 124.233C75.7173 124.352 75.7401 124.461 75.7856 124.562C75.8312 124.66 75.9053 124.752 76.0078 124.838C76.1126 124.923 76.2505 125.002 76.4214 125.078C76.5923 125.151 76.8031 125.22 77.0537 125.286C77.318 125.359 77.5527 125.44 77.7578 125.529C77.9629 125.618 78.1361 125.72 78.2773 125.836C78.4186 125.95 78.5257 126.084 78.5986 126.236C78.6715 126.389 78.708 126.567 78.708 126.77C78.708 126.972 78.6647 127.155 78.5781 127.316C78.4938 127.476 78.3742 127.611 78.2192 127.723C78.0666 127.835 77.8854 127.92 77.6758 127.979C77.4684 128.039 77.2417 128.068 76.9956 128.068C76.7746 128.068 76.5547 128.04 76.3359 127.983C76.1172 127.926 75.9167 127.838 75.7344 127.72C75.5544 127.599 75.4097 127.444 75.3003 127.255C75.1932 127.066 75.1396 126.84 75.1396 126.578H75.5566C75.5566 126.788 75.5988 126.964 75.6831 127.108C75.7674 127.251 75.8791 127.368 76.0181 127.457C76.1593 127.545 76.3143 127.61 76.4829 127.651C76.6538 127.69 76.8247 127.709 76.9956 127.709C77.2576 127.709 77.4844 127.671 77.6758 127.593C77.8695 127.516 78.0187 127.408 78.1235 127.269C78.2306 127.127 78.2842 126.963 78.2842 126.776ZM82.7104 127.641V128H79.9111V127.641H82.7104ZM80.0376 123.023V128H79.6172V123.023H80.0376ZM82.3618 125.255V125.614H79.9111V125.255H82.3618ZM82.6934 123.023V123.386H79.9111V123.023H82.6934ZM83.5923 123.023H85.209C85.5531 123.023 85.8516 123.079 86.1045 123.191C86.3574 123.303 86.5522 123.468 86.689 123.687C86.828 123.903 86.8975 124.17 86.8975 124.486C86.8975 124.721 86.8473 124.934 86.7471 125.125C86.6491 125.317 86.5135 125.478 86.3403 125.607C86.1672 125.735 85.9666 125.823 85.7388 125.871L85.5918 125.925H83.8657L83.8589 125.566H85.3047C85.5645 125.566 85.7809 125.516 85.9541 125.416C86.1273 125.316 86.2572 125.184 86.3438 125.02C86.4326 124.853 86.4771 124.675 86.4771 124.486C86.4771 124.261 86.4281 124.066 86.3301 123.902C86.2344 123.736 86.092 123.608 85.9028 123.519C85.7137 123.43 85.4824 123.386 85.209 123.386H84.0127V128H83.5923V123.023ZM86.665 128L85.3765 125.775L85.8276 125.771L87.1128 127.956V128H86.665ZM89.5396 127.381L91.1084 123.023H91.5664L89.7139 128H89.3755L89.5396 127.381ZM87.9194 123.023L89.4814 127.381L89.6523 128H89.3105L87.4614 123.023H87.9194ZM92.8174 123.023V128H92.397V123.023H92.8174ZM97.271 126.448H97.6914C97.6572 126.783 97.5649 127.073 97.4146 127.316C97.2642 127.558 97.0591 127.744 96.7993 127.874C96.5396 128.003 96.2262 128.068 95.8594 128.068C95.5768 128.068 95.3205 128.015 95.0903 127.908C94.8625 127.801 94.6665 127.649 94.5024 127.453C94.3384 127.255 94.2119 127.018 94.123 126.742C94.0342 126.466 93.9897 126.16 93.9897 125.823V125.201C93.9897 124.863 94.0342 124.558 94.123 124.285C94.2119 124.009 94.3395 123.772 94.5059 123.574C94.6722 123.375 94.8716 123.223 95.104 123.116C95.3364 123.009 95.5985 122.955 95.8901 122.955C96.2433 122.955 96.5487 123.02 96.8062 123.15C97.0636 123.278 97.2664 123.462 97.4146 123.704C97.5649 123.945 97.6572 124.237 97.6914 124.579H97.271C97.2391 124.31 97.1685 124.082 97.0591 123.895C96.9497 123.708 96.7982 123.566 96.6045 123.468C96.4131 123.368 96.175 123.317 95.8901 123.317C95.6577 123.317 95.4504 123.362 95.2681 123.451C95.0858 123.54 94.9308 123.667 94.8032 123.833C94.6756 123.998 94.5776 124.195 94.5093 124.425C94.4432 124.655 94.4102 124.911 94.4102 125.194V125.823C94.4102 126.096 94.4421 126.348 94.5059 126.578C94.5697 126.808 94.6631 127.008 94.7861 127.176C94.9115 127.345 95.0641 127.476 95.2441 127.569C95.4242 127.663 95.6292 127.709 95.8594 127.709C96.1533 127.709 96.3983 127.663 96.5942 127.569C96.7925 127.474 96.9463 127.332 97.0557 127.146C97.165 126.959 97.2368 126.726 97.271 126.448ZM101.81 127.641V128H99.0107V127.641H101.81ZM99.1372 123.023V128H98.7168V123.023H99.1372ZM101.461 125.255V125.614H99.0107V125.255H101.461ZM101.793 123.023V123.386H99.0107V123.023H101.793Z" fill="#6D6D6D"/>
<path d="M10.9248 108.27L10.7288 114.36L10.8968 118H8.93677L9.10477 114.598L9.07677 113.856H5.31077L5.29677 114.36L5.46477 118H3.50477L3.67277 114.598L3.50477 108.62L5.49277 108.27L5.35277 112.372H9.03477L8.93677 108.62L10.9248 108.27ZM13.1708 118L13.3388 114.598L13.1708 108.34H18.4208L18.2668 109.838H15.1168L15.0328 112.316H17.8328L17.6788 113.8H14.9768L14.9628 114.36L15.0608 116.516H18.4488L18.2948 118H13.1708ZM20.0614 118L20.2294 114.598L20.0614 108.62L22.0494 108.27L21.8534 114.36L21.9514 116.628L24.8214 116.404L24.6674 118H20.0614ZM29.0603 108.34C29.9563 108.34 30.6703 108.597 31.2023 109.11C31.7343 109.614 32.0003 110.309 32.0003 111.196C32.0003 112.083 31.6643 112.843 30.9923 113.478C30.3203 114.103 29.499 114.416 28.5283 114.416H27.7303L27.8983 118H26.0223L26.1903 114.598L26.0223 108.34H29.0603ZM28.5563 109.754H27.8703L27.7723 113.058H28.7243C29.191 113.058 29.5503 112.904 29.8023 112.596C30.0637 112.288 30.1943 111.849 30.1943 111.28C30.1943 110.263 29.6483 109.754 28.5563 109.754ZM35.1334 108.27L34.9374 114.36L35.1054 118H33.1454L33.3134 114.598L33.1454 108.62L35.1334 108.27ZM44.776 108.312L44.594 114.36L44.748 117.692L43.096 118.042L38.924 111.294V114.36L39.12 118H37.37L37.538 114.598L37.37 108.382L39.05 108.298L43.208 115.144L43.068 108.522L44.776 108.312ZM50.3963 118.154C49.1737 118.154 48.189 117.743 47.4423 116.922C46.6957 116.101 46.3223 115.013 46.3223 113.66C46.3223 112.12 46.789 110.823 47.7223 109.768C48.6557 108.713 49.8037 108.186 51.1663 108.186C51.7077 108.186 52.207 108.237 52.6643 108.34C53.131 108.433 53.4623 108.531 53.6583 108.634L53.9383 108.788L53.1263 110.734C52.8463 110.547 52.4683 110.375 51.9923 110.216C51.5163 110.048 51.0963 109.964 50.7323 109.964C49.9763 109.964 49.3697 110.23 48.9123 110.762C48.455 111.294 48.2263 111.999 48.2263 112.876C48.2263 114.061 48.441 114.985 48.8703 115.648C49.309 116.311 49.9157 116.642 50.6903 116.642C51.1943 116.642 51.6703 116.572 52.1183 116.432V114.262H50.3123L50.4523 112.848H53.8123L53.6863 115.13L53.7843 117.552C52.4123 117.953 51.283 118.154 50.3963 118.154ZM65.5029 108.27L65.3069 114.36L65.4749 118H63.5149L63.6829 114.598L63.6549 113.856H59.8889L59.8749 114.36L60.0429 118H58.0829L58.2509 114.598L58.0829 108.62L60.0709 108.27L59.9309 112.372H63.6129L63.5149 108.62L65.5029 108.27ZM73.4049 118.07L72.7189 115.34H69.3729L68.6309 118L66.8389 117.86L68.0709 114.458L69.9469 108.438L72.4529 108.256L74.2589 114.248L75.4209 117.762L73.4049 118.07ZM71.1929 110.076H71.0109L69.8069 113.856H72.2989L71.1929 110.076ZM84.151 108.312L83.969 114.36L84.123 117.692L82.471 118.042L78.299 111.294V114.36L78.495 118H76.745L76.913 114.598L76.745 108.382L78.425 108.298L82.583 115.144L82.443 108.522L84.151 108.312ZM89.2673 118.154C88.6047 118.154 87.648 118.103 86.3973 118L86.5653 114.598L86.3973 108.34H90.1353C91.3953 108.34 92.38 108.718 93.0893 109.474C93.7987 110.23 94.1533 111.28 94.1533 112.624C94.1533 114.323 93.7147 115.671 92.8373 116.67C91.96 117.659 90.77 118.154 89.2673 118.154ZM89.6313 109.852C89.0153 109.852 88.5813 109.857 88.3293 109.866L88.1893 114.36L88.2873 116.628C89.0713 116.684 89.5987 116.712 89.8693 116.712C90.6067 116.712 91.1853 116.413 91.6053 115.816C92.0347 115.219 92.2493 114.351 92.2493 113.212C92.2493 112.073 92.0393 111.229 91.6193 110.678C91.2087 110.127 90.546 109.852 89.6313 109.852ZM95.8482 115.214C96.6416 116.007 97.4349 116.404 98.2282 116.404C98.6389 116.404 98.9656 116.311 99.2082 116.124C99.4602 115.928 99.5862 115.681 99.5862 115.382C99.5862 115.074 99.4369 114.817 99.1382 114.612C98.8396 114.397 98.4756 114.211 98.0462 114.052C97.6262 113.893 97.2062 113.716 96.7862 113.52C96.3662 113.315 96.0069 113.025 95.7082 112.652C95.4096 112.279 95.2602 111.826 95.2602 111.294C95.2602 110.454 95.6102 109.731 96.3102 109.124C97.0102 108.508 97.8409 108.2 98.8022 108.2C99.2409 108.2 99.6656 108.247 100.076 108.34C100.487 108.433 100.884 108.569 101.266 108.746L100.314 110.79C100.053 110.585 99.6936 110.398 99.2362 110.23C98.7882 110.053 98.3916 109.964 98.0462 109.964C97.7102 109.964 97.4349 110.048 97.2202 110.216C97.0149 110.375 96.9122 110.589 96.9122 110.86C96.9122 111.131 97.0616 111.373 97.3602 111.588C97.6589 111.793 98.0182 111.975 98.4382 112.134C98.8676 112.293 99.2922 112.47 99.7122 112.666C100.142 112.853 100.506 113.133 100.804 113.506C101.103 113.879 101.252 114.332 101.252 114.864C101.252 115.741 100.902 116.511 100.202 117.174C99.5022 117.827 98.6856 118.154 97.7522 118.154C97.0522 118.154 96.4316 117.986 95.8902 117.65C95.4142 117.361 95.0782 117.104 94.8822 116.88L94.7562 116.726L95.8482 115.214Z" fill="black"/>
</svg>
