<svg xmlns="http://www.w3.org/2000/svg" style="display: none;">
  <symbol id="calendar" viewBox="22216.7 83.334 666.6 650">
    <path id="Vector" d="M22383.3 133.334V83.334" stroke="black" stroke-width="50" stroke-linecap="round"/>
    <path id="Vector_2" d="M22716.7 133.334V83.334" stroke="black" stroke-width="50" stroke-linecap="round"/>
    <path id="Vector_3" d="M22700 600C22727.6 600 22750 577.614 22750 550C22750 522.386 22727.6 500 22700 500C22672.4 500 22650 522.386 22650 550C22650 577.614 22672.4 600 22700 600Z" stroke="black" stroke-width="5"/>
    <path id="Vector_4" d="M22866.7 300H22704.2H22508.3M22216.7 300H22345.8" stroke="black" stroke-width="5" stroke-linecap="round"/>
    <path id="Vector_5" d="M22616.7 733.334H22483.3C22357.6 733.334 22294.8 733.334 22255.7 694.281C22216.7 655.231 22216.7 592.374 22216.7 466.667V400.001C22216.7 274.293 22216.7 211.439 22255.7 172.386C22294.8 133.334 22357.6 133.334 22483.3 133.334H22616.7C22742.4 133.334 22805.2 133.334 22844.3 172.386C22883.3 211.439 22883.3 274.293 22883.3 400.001V466.667C22883.3 592.374 22883.3 655.231 22844.3 694.281C22822.5 716.054 22793.3 725.687 22750 729.951" stroke="black" stroke-width="5" stroke-linecap="round"/>

  </symbol>

  <symbol id="calendar-grid" viewBox="19484 100 600 600">
    <path id="Vector_7" d="M19484 300H20084M19617.3 100V166.667M19950.7 100V166.667M19584 400H19650.7M19750.7 400H19817.3M19917.3 400H19984M19584 500H19650.7M19750.7 500H19817.3M19917.3 500H19984M19584 600H19650.7M19750.7 600H19817.3M19917.3 600H19984M19590.7 700H19977.3C20014.7 700 20033.3 700 20047.6 692.733C20060.1 686.343 20070.3 676.143 20076.7 663.6C20084 649.34 20084 630.67 20084 593.333V273.333C20084 235.996 20084 217.328 20076.7 203.067C20070.3 190.523 20060.1 180.324 20047.6 173.933C20033.3 166.667 20014.7 166.667 19977.3 166.667H19590.7C19553.3 166.667 19534.7 166.667 19520.4 173.933C19507.9 180.324 19497.7 190.523 19491.3 203.067C19484 217.328 19484 235.996 19484 273.333V593.333C19484 630.67 19484 649.34 19491.3 663.6C19497.7 676.143 19507.9 686.343 19520.4 692.733C19534.7 700 19553.3 700 19590.7 700Z" stroke="black" stroke-width="66.6667" stroke-linecap="round"/>
  </symbol>

  <symbol id="calendar-simple" viewBox="20867 100 600 600">
    <path d="M20867 300H21467M21000.3 100V166.667M21333.7 100V166.667M20967 400H21100.3V533.333H20967V400ZM20973.7 700H21360.3C21397.7 700 21416.3 700 21430.6 692.733C21443.1 686.343 21453.3 676.143 21459.7 663.6C21467 649.34 21467 630.67 21467 593.333V273.333C21467 235.996 21467 217.328 21459.7 203.067C21453.3 190.523 21443.1 180.324 21430.6 173.933C21416.3 166.667 21397.7 166.667 21360.3 166.667H20973.7C20936.3 166.667 20917.7 166.667 20903.4 173.933C20890.9 180.324 20880.7 190.523 20874.3 203.067C20867 217.328 20867 235.996 20867 273.333V593.333C20867 630.67 20867 649.34 20874.3 663.6C20880.7 676.143 20890.9 686.343 20903.4 692.733C20917.7 700 20936.3 700 20973.7 700Z" stroke="currentColor" stroke-width="20" stroke-linecap="round" stroke-linejoin="round"/>
  </symbol>

  <symbol id="dollar-square" viewBox="11152.7 66.666 666.6 666.667">
    <path d="M11375.1 477.661C11375.1 520.661 11408.1 555.327 11449.1 555.327H11532.7C11568.4 555.327 11597.4 524.994 11597.4 487.661C11597.4 446.994 11579.7 432.661 11553.4 423.327L11419.1 376.661C11392.7 367.327 11375.1 352.994 11375.1 312.329C11375.1 274.995 11404.1 244.662 11439.7 244.662H11523.4C11564.4 244.662 11597.4 279.329 11597.4 322.329M11486 200V600M11586 733.333H11386C11219.3 733.333 11152.7 666.666 11152.7 499.999V299.999C11152.7 133.333 11219.3 66.666 11386 66.666H11586C11752.7 66.666 11819.3 133.333 11819.3 299.999V499.999C11819.3 666.666 11752.7 733.333 11586 733.333Z" stroke="currentColor" stroke-width="50" stroke-linecap="round" stroke-linejoin="round"/>
  </symbol>

  <symbol id="dollar-circle-alt" viewBox="9803 100 600 600">
    <path d="M9903 266.667H9836.33M9903 533.333H9836.33M9903 400H9803M9936.33 150.518C9984 118.609 10041.3 100 10103 100C10268.7 100 10403 234.315 10403 400C10403 565.687 10268.7 700 10103 700C10041.3 700 9984 681.39 9936.33 649.483M10169.7 316.664C10153 312.53 10125.8 312.378 10103 312.53M10103 312.53C10095.4 312.581 10100 312.256 10089.7 312.53C10062.8 313.369 10036.4 324.555 10036.3 356.247C10036.3 390.007 10069.7 399.997 10103 399.997C10136.3 399.997 10169.7 407.703 10169.7 443.747C10169.7 470.833 10142.7 482.703 10109.2 486.633C10107.1 486.633 10105 486.637 10103 486.647M10103 312.53V266.667M10103 486.647C10080.3 486.74 10067 487.16 10036.3 483.33M10103 486.647V533.333" stroke="currentColor" stroke-width="66.6667" stroke-linecap="round" stroke-linejoin="round"/>
  </symbol>

  <symbol id="dollar-circle-simple" viewBox="8386.67 66.666 666.66 666.667">
    <path id="Vector_22" d="M8720 566.666V583.333V599.999" stroke="black" stroke-width="50" stroke-linecap="round"/>
    <path id="Vector_23" d="M8720 200V216.667V233.333" stroke="black" stroke-width="50" stroke-linecap="round"/>
    <path id="Vector_24" d="M8820 316.667C8820 270.644 8775.23 233.334 8720 233.334C8664.77 233.334 8620 270.644 8620 316.667C8620 362.691 8664.77 400.001 8720 400.001C8775.23 400.001 8820 437.311 8820 483.334C8820 529.357 8775.23 566.667 8720 566.667C8664.77 566.667 8620 529.357 8620 483.334" stroke="black" stroke-width="50" stroke-linecap="round"/>
    <path id="Vector_25" d="M8553.33 111.26C8602.36 82.8984 8659.29 66.666 8720 66.666C8904.09 66.666 9053.33 215.904 9053.33 399.999C9053.33 584.093 8904.09 733.333 8720 733.333C8535.91 733.333 8386.67 584.093 8386.67 399.999C8386.67 339.286 8402.9 282.362 8431.26 233.333" stroke="black" stroke-width="50" stroke-linecap="round"/>
  </symbol>

  <symbol id="stethoscope" viewBox="18074.2 0 658.7 800">
    <path d="M18380.9 80.1335C18403 80.1335 18420.9 62.195 18420.9 40.0668C18420.9 17.9385 18403 0 18380.9 0C18358.7 0 18340.8 17.9385 18340.8 40.0668C18340.8 62.195 18358.7 80.1335 18380.9 80.1335Z" fill="currentColor"/>
    <path d="M18593.2 80.1335C18615.3 80.1335 18633.2 62.195 18633.2 40.0668C18633.2 17.9385 18615.3 0 18593.2 0C18571 0 18553.1 17.9385 18553.1 40.0668C18553.1 62.195 18571 80.1335 18593.2 80.1335Z" fill="currentColor"/>
    <path d="M18712.5 76.5104C18692.2 41.2518 18655.7 20.2032 18615 20.2032V59.9401C18641.3 59.9401 18664.9 73.562 18678.1 96.3789C18691.3 119.2 18691.3 146.443 18678.1 169.264L18550.5 390.345C18537.3 413.162 18513.7 426.784 18487.4 426.788C18461 426.788 18437.4 413.166 18424.2 390.345L18296.6 169.26C18283.4 146.443 18283.4 119.196 18296.6 96.3789C18309.8 73.562 18333.4 59.9362 18359.7 59.9362V20.1992C18319 20.1992 18282.5 41.2479 18262.2 76.5104C18241.8 111.773 18241.8 153.87 18262.2 189.129L18389.8 410.209C18406.8 439.611 18435 459.082 18467.5 464.756V571.378C18467.5 675.533 18406 760.268 18330.4 760.268C18254.9 760.268 18193.4 675.533 18193.4 571.378V444.427C18238.6 435.2 18272.8 395.081 18272.8 347.127C18272.8 292.373 18228.3 247.828 18173.5 247.828C18118.7 247.828 18074.2 292.373 18074.2 347.127C18074.2 395.078 18108.4 435.196 18153.6 444.427V571.378C18153.6 697.444 18232.9 800.005 18330.4 800.005C18427.9 800.005 18507.2 697.444 18507.2 571.378V464.756C18539.7 459.082 18567.9 439.611 18584.9 410.209L18712.5 189.129C18732.9 153.87 18732.9 111.769 18712.5 76.5104Z" fill="currentColor"/>
  </symbol>

  <symbol id="medical-cross" viewBox="16718 100 600 600">
    <path id="Vector_11" d="M16943 150C16938.4 150 16934.7 153.731 16934.7 158.333V291.667C16934.7 305.474 16923.5 316.667 16909.7 316.667H16776.3C16771.7 316.667 16768 320.398 16768 325V475C16768 479.603 16771.7 483.333 16776.3 483.333H16909.7C16923.5 483.333 16934.7 494.527 16934.7 508.333V641.667C16934.7 646.27 16938.4 650 16943 650H17093C17097.6 650 17101.3 646.27 17101.3 641.667V508.333C17101.3 494.527 17112.5 483.333 17126.3 483.333H17259.7C17264.3 483.333 17268 479.603 17268 475V325C17268 320.398 17264.3 316.667 17259.7 316.667H17126.3C17112.5 316.667 17101.3 305.474 17101.3 291.667V158.333C17101.3 153.731 17097.6 150 17093 150H16943ZM16884.7 158.333C16884.7 126.117 16910.8 100 16943 100H17093C17125.2 100 17151.3 126.117 17151.3 158.333V266.667H17259.7C17291.9 266.667 17318 292.783 17318 325V475C17318 507.217 17291.9 533.333 17259.7 533.333H17151.3V641.667C17151.3 673.883 17125.2 700 17093 700H16943C16910.8 700 16884.7 673.883 16884.7 641.667V533.333H16776.3C16744.1 533.333 16718 507.217 16718 475V325C16718 292.783 16744.1 266.667 16776.3 266.667H16884.7V158.333Z" fill="currentColor"/>
  </symbol>

  <symbol id="medical-bag" viewBox="15235 50.9492 800 698.1">
    <path d="M15517.1 572.135H15569.1C15569.1 572.135 15576.3 570.832 15576.3 578.579C15576.3 591.788 15576.3 631.412 15576.3 631.412C15576.3 639.403 15582.9 645.94 15590.9 645.94H15679.1C15687.1 645.94 15693.7 639.401 15693.7 631.412C15693.7 631.412 15693.7 592.253 15693.7 579.2C15693.7 573.312 15701.4 572.135 15701.4 572.135H15752.9C15760.9 572.135 15767.5 565.597 15767.5 557.607V469.346C15767.5 461.359 15760.9 454.82 15752.9 454.82H15700.1C15694.6 454.82 15693.7 447.629 15693.7 447.629V395.543C15693.7 387.552 15687.1 381.014 15679.1 381.014H15590.9C15582.9 381.014 15576.3 387.552 15576.3 395.543V447.629C15576.3 447.629 15575.4 454.82 15569.9 454.82H15517.1C15509.1 454.82 15502.5 461.359 15502.5 469.346V557.607C15502.5 565.598 15509.1 572.135 15517.1 572.135Z" fill="currentColor"/>
    <path d="M15993.6 195.345H15858.8C15852.1 195.345 15851.9 189.173 15851.9 189.173V81.3808C15851.9 64.601 15838.2 50.9492 15821.4 50.9492H15448.6C15431.8 50.9492 15418.1 64.601 15418.1 81.3808V188.706C15418.1 195.525 15410.5 195.343 15410.5 195.343H15276.4C15253.6 195.343 15235 213.93 15235 236.778V707.614C15235 730.46 15253.6 749.049 15276.4 749.049H15993.6C16016.4 749.049 16035 730.46 16035 707.614V236.78C16035 213.932 16016.4 195.345 15993.6 195.345Z" fill="currentColor"/>
  </symbol>

  <symbol id="price-tag" viewBox="13952 100 571.9 571.9">
    <path d="M13952 183.333C13952 137.31 13989.3 100 14035.3 100H14235.3C14239.8 100 14244 101.756 14247.1 104.882L14523.9 381.646C14561.6 419.397 14561.6 480.603 14523.9 518.354L14370.4 671.883C14332.6 709.634 14271.4 709.634 14233.6 671.883L13956.9 395.118C13953.8 391.993 13952 387.754 13952 383.333V183.333Z" fill="currentColor"/>
  </symbol>

  <symbol id="dollar-circle" viewBox="12535.7 66.666 666.6 666.667">
    <path d="M12869 200V600M12969 316.667C12969 270.644 12924.2 233.334 12869 233.334C12813.8 233.334 12769 270.644 12769 316.667C12769 362.691 12813.8 400.001 12869 400.001C12924.2 400.001 12969 437.311 12969 483.334C12969 529.357 12924.2 566.667 12869 566.667C12813.8 566.667 12769 529.357 12769 483.334" stroke="currentColor" stroke-width="50" stroke-linecap="round"/>
    <path d="M12702.3 111.26C12751.4 82.8984 12808.3 66.666 12869 66.666C13053.1 66.666 13202.3 215.904 13202.3 399.999C13202.3 584.093 13053.1 733.333 12869 733.333C12684.9 733.333 12535.7 584.093 12535.7 399.999C12535.7 339.286 12551.9 282.362 12580.3 233.333" stroke="currentColor" stroke-width="50" stroke-linecap="round"/>
  </symbol>

  <symbol id="lab-equipment" viewBox="6987.67 50 731.33 700.768">
    <path d="M7083.33 50H7337.67M6987.67 463.666H7306M7274 314V50H7147V314C7095.63 329.258 7051.48 362.502 7022.62 407.649C6993.75 452.795 6982.11 506.825 6989.82 559.852C6997.53 612.879 7024.07 661.357 7064.6 696.415C7105.12 731.473 7156.92 750.768 7210.5 750.768C7264.08 750.768 7315.88 731.473 7356.4 696.415C7396.93 661.357 7423.47 612.879 7431.18 559.852C7438.89 506.825 7427.25 452.795 7398.38 407.649C7369.52 362.502 7325.37 329.258 7274 314Z" stroke="currentColor" stroke-width="63.6667" stroke-miterlimit="10"/>
  </symbol>

  <symbol id="test-tube" viewBox="4414.64 0 312.71 800">
    <path id="Vector_32" d="M6301.04 534.484L6281.67 513.004L6262.29 534.484C6253.45 544.29 6209.33 595.437 6209.33 639.442C6209.33 679.328 6241.78 711.777 6281.67 711.777C6321.55 711.777 6354 679.328 6354 639.442C6354 595.439 6309.88 544.293 6301.04 534.484ZM6281.67 659.606C6270.55 659.606 6261.51 650.561 6261.51 639.443C6261.51 628.24 6270.79 610.495 6281.65 594.462C6292.52 610.536 6301.83 628.303 6301.83 639.443C6301.83 650.561 6292.79 659.606 6281.67 659.606Z" fill="black"/>
    <path id="Vector_33" d="M6126.38 88.2246L6081.53 114.884L6091.98 132.454L5613.41 416.966C5585.54 433.538 5565.78 459.973 5557.79 491.404C5549.8 522.834 5554.53 555.494 5571.1 583.369C5593.77 621.508 5634.21 642.708 5675.66 642.71C5696.75 642.71 5718.09 637.224 5737.5 625.686L6216.07 341.174L6226.51 358.744L6271.36 332.085L6126.38 88.2246ZM5710.84 580.837C5678.02 600.347 5635.45 589.519 5615.94 556.706C5606.49 540.808 5603.8 522.182 5608.36 504.259C5612.91 486.335 5624.18 471.26 5640.08 461.81L5895.33 310.055L6063.24 371.329L5710.84 580.837ZM6121.13 336.916L5953.22 275.643L6118.64 177.298L6189.41 296.327L6121.13 336.916Z" fill="black"/>
    <path id="Vector_34" d="M4672.3 0H4469.69C4439.34 0 4414.64 24.6984 4414.64 55.0531C4414.64 81.7672 4433.77 104.091 4459.05 109.064V318.206V688.047C4459.05 749.778 4509.27 800 4571 800C4632.73 800 4682.95 749.778 4682.95 688.048V318.209V109.064C4708.23 104.091 4727.36 81.7672 4727.36 55.0531C4727.36 24.6984 4702.66 0 4672.3 0ZM4651.08 688.048C4651.08 732.205 4615.16 768.128 4571 768.128C4526.84 768.128 4490.92 732.205 4490.92 688.048V334.145H4651.08V688.048ZM4651.08 302.272H4490.92V110.108H4651.08V302.272ZM4672.3 78.2359H4667.02H4474.98H4469.7C4456.91 78.2359 4446.51 67.8375 4446.51 55.0547C4446.51 42.2719 4456.91 31.8719 4469.7 31.8719H4672.3C4685.09 31.8719 4695.49 42.2703 4695.49 55.0531C4695.49 67.8359 4685.09 78.2359 4672.3 78.2359Z" fill="currentColor"/>
  </symbol>

  <symbol id="blood-drop" viewBox="1405 25.3828 799.975 749.236">
    <path d="M2065.72 373.479C2065.72 373.479 2065.56 373.681 2065.29 374.087C2077.13 407.127 2084.28 437.58 2084.28 463.089C2084.28 566.214 2028.42 656.585 1945.4 705.548C1969.54 746.854 2014.39 774.62 2065.67 774.62C2142.6 774.62 2204.97 712.268 2204.97 635.361C2205.03 558.379 2065.72 373.479 2065.72 373.479Z" fill="currentColor"/>
    <path d="M2035.8 463.088C2035.8 334.479 1802.97 25.3828 1802.97 25.3828C1802.97 25.3828 1570.1 334.479 1570.1 463.088C1570.1 591.621 1674.34 695.912 1802.95 695.912C1931.55 695.912 2035.8 591.646 2035.8 463.088ZM1721.17 594.841C1714.76 602.397 1705.63 606.302 1696.42 606.302C1689.07 606.302 1681.67 603.817 1675.63 598.695C1583.81 521.408 1615.48 407.202 1616.88 402.384C1621.82 385.218 1639.7 375.354 1656.92 380.273C1674.03 385.243 1683.9 403.069 1679.03 420.185C1678.04 423.861 1658.21 499.551 1717.27 549.25C1730.93 560.812 1732.68 581.148 1721.17 594.841Z" fill="currentColor"/>
  </symbol>

  <symbol id="chemistry-set" viewBox="0 151.559 800 496.884">
    <path id="Vector_41" d="M242.883 597.018C250.343 597.018 256.391 590.97 256.391 583.51C256.391 576.05 250.343 570.002 242.883 570.002C235.423 570.002 229.375 576.05 229.375 583.51C229.375 590.97 235.423 597.018 242.883 597.018Z" fill="black"/>
    <path id="Vector_42" d="M128.214 490.428C142.692 490.428 154.428 478.692 154.428 464.214C154.428 449.736 142.692 438 128.214 438C113.736 438 102 449.736 102 464.214C102 478.692 113.736 490.428 128.214 490.428Z" fill="black"/>
    <path id="Vector_43" d="M775 598.443H743.008V279.243C743.008 241.14 712.008 210.14 673.905 210.14H580.375V201.56H582.427C596.233 201.56 607.427 190.366 607.427 176.56C607.427 162.754 596.233 151.56 582.427 151.56C563.955 151.56 428.048 151.56 410.311 151.56C396.505 151.56 385.311 162.754 385.311 176.56C385.311 190.366 396.505 201.56 410.311 201.56H412.364V210.14H305.031V201.559H307.148C320.955 201.559 332.148 190.365 332.148 176.559C332.148 162.752 320.955 151.559 307.148 151.559C288.648 151.559 153.278 151.559 134.627 151.559C120.82 151.559 109.627 162.752 109.627 176.559C109.627 190.365 120.82 201.559 134.627 201.559H136.744V210.14H126.095C87.9922 210.14 56.9922 241.14 56.9922 279.243V598.443H25C11.1937 598.443 0 609.637 0 623.443C0 637.249 11.1937 648.443 25 648.443C53.0609 648.443 713.164 648.443 775 648.443C788.806 648.443 800 637.249 800 623.443C800 609.637 788.806 598.443 775 598.443ZM448.983 323.67C457.212 319.351 462.366 310.824 462.366 301.53V201.56H530.373V301.53C530.373 310.824 535.528 319.351 543.756 323.67C559.38 331.868 571.025 342.266 579.466 353.766H413.291C421.725 342.263 433.364 331.865 448.983 323.67ZM597.809 403.766C602.52 459.966 562.956 516.265 496.369 516.265C430.166 516.265 390.253 460.254 394.972 403.766H597.809ZM186.744 201.56H255.034V298.626H186.744V201.56ZM186.745 348.623H255.034V482.977C255.034 501.804 239.717 517.123 220.889 517.123C202.063 517.123 186.745 501.805 186.745 482.977V348.623ZM693.005 598.443H106.992V279.245C106.992 268.712 115.562 260.141 126.095 260.141H136.744V482.98C136.744 529.377 174.491 567.126 220.887 567.126C267.286 567.126 305.033 529.379 305.033 482.98V260.141H412.366V287.226C289 367.47 343.6 566.263 496.369 566.263C649.394 566.263 703.645 367.39 580.372 287.224V260.14H673.902C684.434 260.14 693.005 268.71 693.005 279.243V598.443Z" fill="black"/>
  </symbol>
  <defs>
    <clipPath id="clip0_4921_92">
      <rect width="800" height="800" fill="white" transform="translate(18001)"/>
    </clipPath>
    <clipPath id="clip1_4921_92">
      <rect width="800" height="800" fill="white" transform="translate(15235)"/>
    </clipPath>
    <clipPath id="clip2_4921_92">
      <rect width="800" height="800" fill="white" transform="translate(5554)"/>
    </clipPath>
    <clipPath id="clip3_4921_92">
      <rect width="800" height="800" fill="white" transform="translate(2788)"/>
    </clipPath>
    <clipPath id="clip4_4921_92">
      <rect width="799.975" height="749.236" fill="white" transform="translate(1405 25.3828)"/>
    </clipPath>
    <clipPath id="clip5_4921_92">
      <rect width="800" height="496.884" fill="white" transform="translate(0 151.559)"/>
    </clipPath>
  </defs>
</svg> 